# xmcd
#
# Track frame offsets: 
#        150
#        24739
#        42389
#        62140
#        83354
#        102628
#        122236
#        142655
#        158645
#        181187
#        198306
#        215495
#        239728
#
# Disc length: 3419 seconds
#
# Revision: 0
# Processed by: cddbd v1.5.2PL0 Copyright (c) Steve Scherf et al.
# Submitted via: ExactAudioCopy v0.99pb5
#
DISCID=b20d590d
DTITLE=Club des Belugas and Thomas Siffling - Ragbag
DYEAR=2018
DGENRE=A Cappella
TTITLE0=This Is What You Want
TTITLE1=Ragbag
TTITLE2=Tequila
TTITLE3=Beyond The Window
TTITLE4=Jumping The Shark
TTITLE5=Kinda Small Talk
TTITLE6=Some Of That Jazz
TTITLE7=Boogaloo Bebop
TTITLE8=Sofa Clubbing
TTITLE9=Flyby
TTITLE10=Upper Valley
TTITLE11=We Owe You One
TTITLE12=Lil Fizz
EXTD=
EXTT0=
EXTT1=
EXTT2=
EXTT3=
EXTT4=
EXTT5=
EXTT6=
EXTT7=
EXTT8=
EXTT9=
EXTT10=
EXTT11=
EXTT12=
PLAYORDER=
